<?xml version="1.0" encoding="UTF-8"?>
<svg width="752pt" height="752pt" version="1.1" viewBox="0 0 752 752" xmlns="http://www.w3.org/2000/svg">
 <g>
  <path d="m260.21 343.37c-3.9297 0-7.1523 3.2188-7.1523 7.1523 0 3.9297 3.2188 7.1523 7.1523 7.1523 3.9297 0 7.1523-3.2188 7.1523-7.1523 0-3.9297-3.1758-7.1523-7.1523-7.1523z"/>
  <path d="m297.1 343.37c-3.9297 0-7.1523 3.2188-7.1523 7.1523 0 3.9297 3.2188 7.1523 7.1523 7.1523 3.9297 0 7.1523-3.2188 7.1523-7.1523 0-3.9297-3.2188-7.1523-7.1523-7.1523z"/>
  <path d="m333.95 343.37c-3.9297 0-7.1523 3.2188-7.1523 7.1523 0 3.9297 3.2188 7.1523 7.1523 7.1523 3.9297 0 7.1523-3.2188 7.1523-7.1523-0.003906-3.9297-3.2227-7.1523-7.1523-7.1523z"/>
  <path d="m370.79 343.37c-3.9297 0-7.1523 3.2188-7.1523 7.1523 0 3.9297 3.2188 7.1523 7.1523 7.1523 3.9297 0 7.1523-3.2188 7.1523-7.1523-0.003906-3.9297-3.1758-7.1523-7.1523-7.1523z"/>
  <path d="m407.68 343.37c-3.9297 0-7.1523 3.2188-7.1523 7.1523 0 3.9297 3.2188 7.1523 7.1523 7.1523 3.9297 0 7.1523-3.2188 7.1523-7.1523 0-3.9297-3.2227-7.1523-7.1523-7.1523z"/>
  <path d="m444.53 357.68c3.9297 0 7.1523-3.2188 7.1523-7.1523 0-3.9297-3.2188-7.1523-7.1523-7.1523-3.9297 0-7.1523 3.2188-7.1523 7.1523 0.003906 3.9766 3.2227 7.1523 7.1523 7.1523z"/>
  <path d="m481.38 357.68c3.9297 0 7.1523-3.2188 7.1523-7.1523 0-3.9297-3.2188-7.1523-7.1523-7.1523-3.9297 0-7.1523 3.2188-7.1523 7.1523 0 3.9766 3.2188 7.1523 7.1523 7.1523z"/>
  <path d="m260.21 379.79c-3.9297 0-7.1523 3.2188-7.1523 7.1523 0 3.9297 3.2188 7.1523 7.1523 7.1523 3.9297 0 7.1523-3.2188 7.1523-7.1523 0-3.9766-3.1758-7.1523-7.1523-7.1523z"/>
  <path d="m297.1 379.79c-3.9297 0-7.1523 3.2188-7.1523 7.1523 0 3.9297 3.2188 7.1523 7.1523 7.1523 3.9297 0 7.1523-3.2188 7.1523-7.1523 0-3.9766-3.2188-7.1523-7.1523-7.1523z"/>
  <path d="m333.95 379.79c-3.9297 0-7.1523 3.2188-7.1523 7.1523 0 3.9297 3.2188 7.1523 7.1523 7.1523 3.9297 0 7.1523-3.2188 7.1523-7.1523-0.003906-3.9766-3.2227-7.1523-7.1523-7.1523z"/>
  <path d="m370.79 379.79c-3.9297 0-7.1523 3.2188-7.1523 7.1523 0 3.9297 3.2188 7.1523 7.1523 7.1523 3.9297 0 7.1523-3.2188 7.1523-7.1523-0.003906-3.9766-3.1758-7.1523-7.1523-7.1523z"/>
  <path d="m407.68 379.79c-3.9297 0-7.1523 3.2188-7.1523 7.1523 0 3.9297 3.2188 7.1523 7.1523 7.1523 3.9297 0 7.1523-3.2188 7.1523-7.1523 0-3.9766-3.2227-7.1523-7.1523-7.1523z"/>
  <path d="m444.53 394.04c3.9297 0 7.1523-3.2188 7.1523-7.1523 0-3.9297-3.2188-7.1523-7.1523-7.1523-3.9297 0-7.1523 3.2188-7.1523 7.1523 0.003906 3.9805 3.2227 7.1523 7.1523 7.1523z"/>
  <path d="m481.38 394.04c3.9297 0 7.1523-3.2188 7.1523-7.1523 0-3.9297-3.2188-7.1523-7.1523-7.1523-3.9297 0-7.1523 3.2188-7.1523 7.1523 0 3.9805 3.2188 7.1523 7.1523 7.1523z"/>
  <path d="m260.21 413.75c-3.9297 0-7.1523 3.2188-7.1523 7.1523 0 3.9297 3.2188 7.1523 7.1523 7.1523 3.9297 0 7.1523-3.2188 7.1523-7.1523 0-3.9805-3.1758-7.1523-7.1523-7.1523z"/>
  <path d="m297.1 413.75c-3.9297 0-7.1523 3.2188-7.1523 7.1523 0 3.9297 3.2188 7.1523 7.1523 7.1523 3.9297 0 7.1523-3.2188 7.1523-7.1523 0-3.9805-3.2188-7.1523-7.1523-7.1523z"/>
  <path d="m333.95 413.75c-3.9297 0-7.1523 3.2188-7.1523 7.1523 0 3.9297 3.2188 7.1523 7.1523 7.1523 3.9297 0 7.1523-3.2188 7.1523-7.1523-0.003906-3.9805-3.2227-7.1523-7.1523-7.1523z"/>
  <path d="m370.79 413.75c-3.9297 0-7.1523 3.2188-7.1523 7.1523 0 3.9297 3.2188 7.1523 7.1523 7.1523 3.9297 0 7.1523-3.2188 7.1523-7.1523-0.003906-3.9805-3.1758-7.1523-7.1523-7.1523z"/>
  <path d="m407.68 413.75c-3.9297 0-7.1523 3.2188-7.1523 7.1523 0 3.9297 3.2188 7.1523 7.1523 7.1523 3.9297 0 7.1523-3.2188 7.1523-7.1523 0-3.9805-3.2227-7.1523-7.1523-7.1523z"/>
  <path d="m260.21 447.7c-3.9297 0-7.1523 3.2188-7.1523 7.1523 0 3.9297 3.2188 7.1523 7.1523 7.1523 3.9297 0 7.1523-3.2188 7.1523-7.1523 0-3.9805-3.1758-7.1523-7.1523-7.1523z"/>
  <path d="m297.1 447.7c-3.9297 0-7.1523 3.2188-7.1523 7.1523 0 3.9297 3.2188 7.1523 7.1523 7.1523 3.9297 0 7.1523-3.2188 7.1523-7.1523 0-3.9805-3.2188-7.1523-7.1523-7.1523z"/>
  <path d="m333.95 447.7c-3.9297 0-7.1523 3.2188-7.1523 7.1523 0 3.9297 3.2188 7.1523 7.1523 7.1523 3.9297 0 7.1523-3.2188 7.1523-7.1523-0.003906-3.9805-3.2227-7.1523-7.1523-7.1523z"/>
  <path d="m370.79 447.7c-3.9297 0-7.1523 3.2188-7.1523 7.1523 0 3.9297 3.2188 7.1523 7.1523 7.1523 3.9297 0 7.1523-3.2188 7.1523-7.1523-0.003906-3.9805-3.1758-7.1523-7.1523-7.1523z"/>
  <path d="m407.68 447.7c-3.9297 0-7.1523 3.2188-7.1523 7.1523 0 3.9297 3.2188 7.1523 7.1523 7.1523 3.9297 0 7.1523-3.2188 7.1523-7.1523 0-3.9805-3.2227-7.1523-7.1523-7.1523z"/>
  <path d="m546.02 411.47v-139.66c0-18.234-14.824-33.008-33.008-33.008h-24.438v-17.477c0-3.9766-3.2188-7.1992-7.1992-7.1992-3.9766 0-7.1992 3.2188-7.1992 7.1992v17.477h-40.918v-17.477c0-3.9766-3.2188-7.1992-7.1992-7.1992-3.9766 0-7.1992 3.2188-7.1992 7.1992v17.477h-40.918v-17.477c0-3.9766-3.2188-7.1992-7.1992-7.1992-3.9766 0-7.1992 3.2188-7.1992 7.1992v17.477h-40.918v-17.477c0-3.9766-3.2188-7.1992-7.1992-7.1992-3.9766 0-7.1992 3.2188-7.1992 7.1992v17.477h-40.918v-17.477c0-3.9766-3.2188-7.1992-7.1992-7.1992-3.9766 0-7.1992 3.2188-7.1992 7.1992v17.477h-24.438c-18.234 0-33.008 14.824-33.008 33.008v206.81c0 18.234 14.824 33.008 33.008 33.008h219.08c12.977 17.145 33.531 28.273 56.688 28.273 39.164 0 70.988-31.871 70.988-70.988 0.15625-23.586-11.445-44.516-29.207-57.445zm-336.05-139.66c0-10.277 8.3828-18.66 18.66-18.66h24.438v19.891c0 3.9766 3.2188 7.1992 7.1992 7.1992 3.9766 0 7.1992-3.2188 7.1992-7.1992v-19.891h40.918v19.891c0 3.9766 3.2188 7.1992 7.1992 7.1992 3.9766 0 7.1992-3.2188 7.1992-7.1992v-19.891h40.918v19.891c0 3.9766 3.2188 7.1992 7.1992 7.1992 3.9766 0 7.1992-3.2188 7.1992-7.1992v-19.891h40.918v19.891c0 3.9766 3.2188 7.1992 7.1992 7.1992 3.9766 0 7.1992-3.2188 7.1992-7.1992v-19.891h40.918v19.891c0 3.9766 3.2188 7.1992 7.1992 7.1992 3.9766 0 7.1992-3.2188 7.1992-7.1992v-19.891h24.438c10.277 0 18.66 8.3828 18.66 18.66v25.621h-321.86zm18.656 225.47c-10.277 0-18.66-8.3828-18.66-18.66l0.003906-166.84h321.7v91.59c-8.3828-3.5039-17.617-5.4453-27.277-5.4453-20.934 0-39.734 9.0938-52.758 23.535 0-0.1875 0.046876-0.37891 0.046876-0.56641 0-3.9297-3.2188-7.1523-7.1523-7.1523-3.9297 0-7.1523 3.2188-7.1523 7.1523 0 3.9297 3.2188 7.1523 7.1523 7.1523 0.75781 0 1.4219-0.14062 2.1328-0.33203-8.3359 11.648-13.262 25.906-13.262 41.25 0 10.086 2.1328 19.652 5.918 28.367l-210.7-0.003907zm275.77 28.32c-14.16 0-27.137-5.2578-37.082-13.922-4.6875-4.0742-8.7148-8.9492-11.887-14.348-4.8789-8.3359-7.6719-18.043-7.6719-28.367 0-2.7461 0.28516-5.4453 0.66406-8.0977 0.47266-3.3164 1.2305-6.582 2.2734-9.707 4.168-12.551 12.645-23.156 23.633-30.121 3.6484-2.3203 7.5781-4.2148 11.699-5.6367 5.7773-1.9883 11.934-3.125 18.422-3.125 9.8984 0 19.18 2.5586 27.277 7.0547 5.3984 2.9844 10.23 6.8672 14.348 11.367 9.2812 10.086 15.012 23.488 15.012 38.266-0.046875 31.207-25.48 56.637-56.688 56.637z"/>
  <path d="m531.67 461.91c-0.47266-0.09375-0.94531-0.14062-1.4219-0.14062h-18.66v-18.66c0-3.9766-3.2188-7.1992-7.1992-7.1992-3.9766 0-7.1992 3.2188-7.1992 7.1992v18.66h-18.66c-3.9766 0-7.1992 3.2188-7.1992 7.1992 0 3.9766 3.2188 7.1992 7.1992 7.1992h18.66v18.66c0 0.89844 0.1875 1.7031 0.47266 2.5117 1.043 2.6992 3.6484 4.6875 6.7266 4.6875s5.6836-1.9414 6.7266-4.6875c0.28516-0.80469 0.47266-1.6094 0.47266-2.5117v-18.66h18.66c0.47266 0 0.99609-0.046875 1.4219-0.14062 3.2695-0.66406 5.7305-3.5508 5.7305-7.0547 0-3.5117-2.4648-6.4023-5.7305-7.0625z"/>
 </g>
</svg>
